<svg width="297" height="100" viewBox="0 0 297 100" fill="none" xmlns="http://www.w3.org/2000/svg">
<path d="M71.5 32.5C75.25 28.75 78.35 27.5 82.75 27.5C86.3967 27.5 89.8941 28.9487 92.4727 31.5273C95.0513 34.1059 96.5 37.6033 96.5 41.25C96.5 46.975 92.725 51.35 89 55L71.5 72.5L54 55C50.25 51.375 46.5 47 46.5 41.25C46.5 37.6033 47.9487 34.1059 50.5273 31.5273C53.1059 28.9487 56.6033 27.5 60.25 27.5C64.65 27.5 67.75 28.75 71.5 32.5ZM71.5 32.5L64.1003 39.9C63.5923 40.4043 63.1892 41.0041 62.9141 41.6648C62.639 42.3256 62.4973 43.0343 62.4973 43.75C62.4973 44.4657 62.639 45.1744 62.9141 45.8352C63.1892 46.4959 63.5923 47.0957 64.1003 47.6C66.1503 49.65 69.4253 49.725 71.6003 47.775L76.7753 43.025C78.0724 41.848 79.7612 41.196 81.5128 41.196C83.2643 41.196 84.9531 41.848 86.2503 43.025L93.6503 49.675M86.5 57.5L81.5 52.5M79 65L74 60" stroke="#09090B" stroke-width="4" stroke-linecap="round" stroke-linejoin="round"/>
<path d="M122.836 74.892C122.068 74.9347 121.428 74.572 120.916 73.804C120.404 73.036 120.169 72.396 120.212 71.884C120.255 71.2013 120.447 70.22 120.788 68.94C121.129 67.66 121.513 66.3587 121.94 65.036C122.367 63.7133 122.751 62.668 123.092 61.9C123.263 61.2173 123.412 60.62 123.54 60.108C123.711 59.5533 123.817 59.1907 123.86 59.02C123.988 58.8493 124.18 58.4013 124.436 57.676C124.735 56.9507 124.969 56.2467 125.14 55.564C125.225 55.2227 125.396 54.5827 125.652 53.644C125.951 52.6627 126.292 51.532 126.676 50.252C127.103 48.972 127.508 47.7133 127.892 46.476C128.319 45.2387 128.681 44.1507 128.98 43.212C129.279 42.2733 129.471 41.6547 129.556 41.356C129.897 40.844 130.153 40.3533 130.324 39.884C130.495 39.4147 130.601 39.0947 130.644 38.924C130.9 38.7533 131.049 38.54 131.092 38.284C131.135 37.9853 131.156 37.7507 131.156 37.58C131.156 37.3667 131.22 37.196 131.348 37.068C131.519 36.94 131.604 36.7907 131.604 36.62C131.775 36.492 131.881 36.4707 131.924 36.556C131.967 36.6413 132.095 36.5773 132.308 36.364L132.628 34.188L138.324 34.124C138.239 34.636 138.111 35.276 137.94 36.044C137.769 36.7693 137.364 37.7507 136.724 38.988C136.511 39.8413 136.255 40.6093 135.956 41.292C135.7 41.9747 135.593 42.4227 135.636 42.636C135.551 42.7213 135.359 43.148 135.06 43.916C134.804 44.684 134.484 45.6227 134.1 46.732C133.759 47.8413 133.396 48.9507 133.012 50.06C132.671 51.1693 132.351 52.1507 132.052 53.004C131.796 53.8147 131.625 54.3267 131.54 54.54C131.199 55.2227 130.815 56.2253 130.388 57.548C129.961 58.8707 129.321 60.6627 128.468 62.924C128.127 63.6067 127.7 64.6307 127.188 65.996C126.719 67.3613 126.335 68.5987 126.036 69.708C125.567 71.372 125.14 72.5667 124.756 73.292C124.415 74.0173 124.095 74.444 123.796 74.572C123.497 74.7427 123.177 74.8493 122.836 74.892ZM123.412 37.26C121.663 37.4307 120.468 37.2173 119.828 36.62C119.231 36.0227 119.017 35.3827 119.188 34.7C119.316 34.188 119.615 33.7613 120.084 33.42C120.596 33.036 121.513 32.716 122.836 32.46C123.305 32.3747 123.903 32.268 124.628 32.14C125.396 32.012 126.121 31.884 126.804 31.756C128.212 31.5853 129.364 31.436 130.26 31.308C131.199 31.18 132.159 31.0733 133.14 30.988C134.121 30.9027 135.359 30.8173 136.852 30.732C138.089 30.6467 139.135 30.5827 139.988 30.54C140.884 30.4547 141.332 30.412 141.332 30.412C141.46 30.412 141.908 30.4547 142.676 30.54C143.444 30.6253 144.276 30.732 145.172 30.86C146.068 30.988 146.729 31.1373 147.156 31.308C148.137 31.5213 148.927 31.9053 149.524 32.46C150.121 33.0147 150.505 33.6547 150.676 34.38C150.804 34.892 150.804 35.2973 150.676 35.596C150.548 35.852 150.313 36.0653 149.972 36.236C148.991 36.5347 148.18 36.7907 147.54 37.004C146.943 37.1747 146.345 37.1533 145.748 36.94C145.535 36.7267 145.279 36.5347 144.98 36.364C144.724 36.1933 144.255 36.0653 143.572 35.98C142.932 35.852 141.908 35.7453 140.5 35.66C139.305 35.788 138.26 35.852 137.364 35.852C136.468 35.852 136.02 35.9587 136.02 36.172L132.244 36.364L129.108 36.684C128.681 36.7267 128.084 36.7907 127.316 36.876C126.548 36.9187 125.801 36.9827 125.076 37.068C124.351 37.1107 123.796 37.1747 123.412 37.26ZM144.405 70.412C144.063 70.0707 143.807 69.5587 143.637 68.876C143.509 68.1933 143.466 67.532 143.509 66.892C143.551 66.2093 143.658 65.6973 143.829 65.356C143.829 65.0147 143.871 64.7587 143.957 64.588C144.085 64.3747 144.127 64.1827 144.085 64.012C144.042 63.8413 144.085 63.5427 144.213 63.116C144.341 62.6893 144.469 62.284 144.597 61.9C144.895 61.2173 145.237 60.3427 145.621 59.276C146.005 58.1667 146.389 57.0573 146.773 55.948C147.157 54.796 147.477 53.8147 147.733 53.004C147.989 52.1507 148.138 51.6387 148.181 51.468C148.181 50.956 148.522 50.6787 149.205 50.636C149.717 50.4653 150.335 50.6787 151.061 51.276C151.786 51.8733 152.362 52.5133 152.789 53.196C153.13 53.5373 153.258 53.9853 153.173 54.54C153.087 55.0947 152.81 55.884 152.341 56.908C152.17 57.2493 151.957 57.8253 151.701 58.636C151.487 59.404 151.338 60.044 151.253 60.556C151.082 60.8973 150.869 61.388 150.613 62.028C150.399 62.6253 150.207 63.2013 150.037 63.756C149.951 63.9693 149.866 64.3747 149.781 64.972C149.695 65.5267 149.589 66.1027 149.461 66.7C149.333 67.2973 149.162 67.7667 148.949 68.108C148.565 69.8573 147.882 70.8813 146.901 71.18C145.962 71.4787 145.13 71.2227 144.405 70.412ZM151.317 44.748C150.847 44.4067 150.485 44.0013 150.229 43.532C150.015 43.02 149.887 42.572 149.845 42.188C149.845 41.804 149.887 41.5693 149.973 41.484C150.399 41.0147 150.762 40.396 151.061 39.628C151.402 38.86 151.765 38.156 152.149 37.516C152.234 37.388 152.341 37.2173 152.469 37.004C152.639 36.748 152.81 36.5987 152.981 36.556C153.493 36.2147 154.197 36.236 155.093 36.62C156.031 37.004 156.714 37.5373 157.141 38.22C157.525 39.0307 157.631 39.8627 157.461 40.716C157.333 41.5693 156.885 42.4653 156.117 43.404C155.477 44.2573 154.666 44.812 153.685 45.068C152.703 45.2813 151.914 45.1747 151.317 44.748ZM161.319 71.564C160.85 71.4787 160.338 71.2013 159.783 70.732C159.228 70.22 158.716 69.6653 158.247 69.068C157.82 68.428 157.543 67.8947 157.415 67.468C157.415 67.3827 157.351 67.276 157.223 67.148C157.138 67.02 157.095 66.956 157.095 66.956C156.924 66.828 156.818 66.2733 156.775 65.292C156.775 64.268 156.839 63.1373 156.967 61.9C157.095 60.6627 157.244 59.6813 157.415 58.956C157.628 58.2733 157.948 57.356 158.375 56.204C158.802 55.0093 159.164 53.9427 159.463 53.004L161.191 49.292L158.631 48.588C158.332 48.5027 158.076 48.332 157.863 48.076C157.692 47.82 157.607 47.6067 157.607 47.436C157.607 47.0947 157.799 46.604 158.183 45.964C158.567 45.324 158.844 45.004 159.015 45.004C159.228 45.0467 159.612 45.068 160.167 45.068C160.764 45.068 161.34 45.0467 161.895 45.004C162.45 44.9613 162.791 44.9187 162.919 44.876C163.09 44.7907 163.26 44.684 163.431 44.556C163.602 44.3853 163.73 44.1507 163.815 43.852C164.028 43.3827 164.22 43.02 164.391 42.764C164.562 42.508 164.796 42.124 165.095 41.612C165.394 41.0573 165.628 40.588 165.799 40.204C166.012 39.82 166.332 39.2867 166.759 38.604C166.972 38.3053 167.207 37.9427 167.463 37.516C167.719 37.0893 168.039 36.7267 168.423 36.428C168.807 36.0867 169.426 35.852 170.279 35.724C171.175 35.5533 171.943 35.7453 172.583 36.3C172.924 36.7267 173.116 37.132 173.159 37.516C173.202 37.9 173.031 38.3907 172.647 38.988C172.306 39.7133 171.9 40.3747 171.431 40.972C171.004 41.5267 170.599 42.1667 170.215 42.892C169.532 43.8307 169.404 44.364 169.831 44.492C170.258 44.62 171.452 44.5347 173.415 44.236C174.652 44.0227 175.548 44.1507 176.103 44.62C176.658 45.0893 176.978 45.6867 177.063 46.412C177.191 47.436 177.084 48.0547 176.743 48.268C176.402 48.4813 175.42 48.588 173.799 48.588C172.775 48.7587 171.9 48.8653 171.175 48.908C170.45 48.908 169.916 48.908 169.575 48.908C169.02 48.9507 168.658 48.972 168.487 48.972C168.316 48.972 168.06 49.0147 167.719 49.1C167.378 49.1853 167.122 49.3347 166.951 49.548C166.823 49.7187 166.674 49.9747 166.503 50.316C166.332 50.4867 166.076 50.9347 165.735 51.66C165.394 52.3853 164.967 53.1747 164.455 54.028C163.858 55.82 163.346 57.548 162.919 59.212C162.535 60.8333 162.194 62.4547 161.895 64.076C161.767 64.8867 161.788 65.484 161.959 65.868C162.172 66.2093 162.727 66.4227 163.623 66.508C164.092 66.5507 164.775 66.5507 165.671 66.508C166.567 66.4227 167.314 66.2947 167.911 66.124C168.38 65.9107 168.871 65.6973 169.383 65.484C169.895 65.228 170.364 64.972 170.791 64.716C171.175 64.5027 171.559 64.2893 171.943 64.076C172.327 63.82 172.519 63.692 172.519 63.692C172.732 63.3507 173.031 63.4147 173.415 63.884C173.842 64.3107 174.14 64.78 174.311 65.292C174.311 65.804 174.204 66.4227 173.991 67.148C173.778 67.8307 172.988 68.556 171.623 69.324C169.703 70.5187 167.783 71.244 165.863 71.5C163.943 71.756 162.428 71.7773 161.319 71.564ZM182.507 71.436C181.483 71.436 180.587 70.9027 179.819 69.836C179.093 68.7267 178.645 67.404 178.475 65.868C178.517 65.5267 178.56 65.036 178.603 64.396C178.688 63.756 178.773 63.0947 178.859 62.412C179.029 61.6013 179.264 60.556 179.562 59.276C179.861 57.996 180.181 56.716 180.523 55.436C180.864 54.1133 181.163 52.9827 181.419 52.044C181.675 51.0627 181.824 50.4867 181.867 50.316C182.123 49.7187 182.699 49.5693 183.595 49.868C184.491 50.1667 185.259 50.8067 185.899 51.788C186.155 52.1293 186.304 52.5347 186.347 53.004C186.432 53.4733 186.368 54.156 186.155 55.052C185.984 55.948 185.643 57.2707 185.131 59.02C184.661 60.7267 184.299 62.1133 184.043 63.18C183.829 64.204 183.744 65.292 183.787 66.444C183.616 68.4067 183.445 69.7507 183.275 70.476C183.104 71.1587 182.848 71.4787 182.507 71.436ZM188.395 44.876C188.224 45.004 188.053 45.068 187.883 45.068C187.755 45.0253 187.52 44.8973 187.179 44.684C186.88 44.6413 186.496 44.4493 186.027 44.108C185.6 43.724 185.216 43.34 184.875 42.956C184.576 42.572 184.427 42.3373 184.427 42.252C184.384 41.8253 184.405 41.1427 184.491 40.204C184.619 39.2653 184.853 38.3907 185.195 37.58C185.579 36.7267 186.091 36.2787 186.731 36.236C186.901 36.236 187.264 36.3213 187.819 36.492C188.416 36.6627 189.035 36.876 189.675 37.132C190.016 37.772 190.336 38.604 190.635 39.628C190.933 40.652 190.955 41.6547 190.699 42.636C190.485 43.5747 189.717 44.3213 188.395 44.876ZM189.949 83.34C189.352 83.5107 188.733 83.3613 188.093 82.892C187.496 82.4227 187.026 81.7827 186.685 80.972C186.386 80.1613 186.386 79.3293 186.685 78.476C186.77 78.22 186.898 77.7933 187.069 77.196C187.24 76.6413 187.346 76.1507 187.389 75.724C187.432 75.4253 187.56 74.9133 187.773 74.188C187.986 73.5053 188.221 72.8227 188.477 72.14C188.776 71.4573 189.01 70.9667 189.181 70.668C189.437 70.2413 189.608 69.7507 189.693 69.196C189.821 68.6413 189.885 68.2147 189.885 67.916C189.97 67.6173 190.077 67.276 190.205 66.892C190.376 66.508 190.546 66.2093 190.717 65.996C190.802 65.6547 190.93 65.292 191.101 64.908C191.272 64.4813 191.464 64.1187 191.677 63.82C191.762 63.5213 191.826 63.1587 191.869 62.732C191.954 62.3053 192.082 62.0707 192.253 62.028C192.296 61.8573 192.317 61.6867 192.317 61.516C192.36 61.3453 192.445 61.1107 192.573 60.812C192.658 60.3427 192.85 59.66 193.149 58.764C193.448 57.868 193.81 56.8867 194.237 55.82C194.706 54.5827 195.026 53.516 195.197 52.62C195.368 51.6813 195.133 51.084 194.493 50.828C194.152 50.6573 193.938 50.2733 193.853 49.676C193.768 49.036 193.81 48.396 193.981 47.756C194.152 47.116 194.408 46.732 194.749 46.604C195.133 46.4333 195.602 46.3267 196.157 46.284C196.712 46.2413 197.202 46.2413 197.629 46.284C198.098 46.284 198.312 46.3267 198.269 46.412C198.269 46.6253 198.376 46.7533 198.589 46.796C198.674 46.668 198.845 46.86 199.101 47.372C199.4 47.8413 199.677 48.3747 199.933 48.972C200.189 49.5693 200.317 49.9747 200.317 50.188C200.232 50.3587 200.189 50.4653 200.189 50.508C200.189 50.508 200.274 50.508 200.445 50.508C200.445 50.508 200.68 50.4013 201.149 50.188C201.618 49.932 202.109 49.6547 202.621 49.356C203.176 49.0147 203.538 48.7587 203.709 48.588C203.709 48.588 203.816 48.5453 204.029 48.46C204.285 48.332 204.498 48.1827 204.669 48.012C205.522 47.6707 206.44 47.6067 207.421 47.82C208.445 48.0333 209.256 48.4173 209.853 48.972C210.706 50.0387 211.346 51.3613 211.773 52.94C212.242 54.5187 212.178 56.0547 211.581 57.548C211.496 57.7613 211.304 58.124 211.005 58.636C210.749 59.1053 210.493 59.5533 210.237 59.98C209.981 60.364 209.853 60.556 209.853 60.556C208.872 62.092 207.784 63.372 206.589 64.396C205.437 65.42 204.178 66.316 202.813 67.084C202.386 67.3827 201.789 67.66 201.021 67.916C200.296 68.172 199.613 68.364 198.973 68.492C198.376 68.62 198.013 68.6413 197.885 68.556C197.416 68.2147 196.989 67.4893 196.605 66.38C196.392 66.9347 196.178 67.4893 195.965 68.044C195.794 68.556 195.688 68.8973 195.645 69.068C195.602 69.3667 195.56 69.6227 195.517 69.836C195.474 70.0067 195.368 70.156 195.197 70.284C195.197 70.284 195.176 70.3693 195.133 70.54C195.09 70.7107 194.941 70.9667 194.685 71.308C194.258 72.5453 193.917 73.5053 193.661 74.188C193.405 74.9133 193.192 75.4893 193.021 75.916C192.893 76.3853 192.765 76.876 192.637 77.388C192.552 78.54 192.274 79.756 191.805 81.036C191.378 82.316 190.76 83.084 189.949 83.34ZM199.485 62.54C199.656 62.4547 199.954 62.3053 200.381 62.092C200.85 61.8787 201.362 61.6227 201.917 61.324C202.472 60.9827 202.984 60.6627 203.453 60.364C203.965 60.0227 204.328 59.724 204.541 59.468C204.882 59.084 205.074 58.7853 205.117 58.572C205.16 58.316 205.266 57.9107 205.437 57.356C205.565 57.0147 205.714 56.6307 205.885 56.204C206.056 55.7773 206.205 55.372 206.333 54.988C206.504 54.6467 206.568 54.3053 206.525 53.964C206.525 53.58 206.397 53.26 206.141 53.004C205.97 52.9613 205.565 53.0253 204.925 53.196C204.328 53.3667 203.624 53.708 202.813 54.22C202.045 54.732 201.277 55.4787 200.509 56.46C199.613 57.612 199.016 58.6573 198.717 59.596C198.418 60.492 198.354 61.2173 198.525 61.772C198.696 62.284 199.016 62.54 199.485 62.54ZM216.697 69.388C216.526 69.388 216.163 69.26 215.609 69.004C215.054 68.748 214.777 68.62 214.777 68.62C214.777 68.4493 214.713 68.236 214.585 67.98C214.499 67.724 214.457 67.5107 214.457 67.34C214.158 67.1693 213.859 66.892 213.561 66.508C213.262 66.124 213.198 65.6973 213.369 65.228C213.625 64.7587 213.966 64.0547 214.393 63.116C214.862 62.1347 215.353 61.0467 215.865 59.852C216.419 58.6147 216.931 57.42 217.401 56.268C217.87 55.116 218.275 54.1347 218.617 53.324C218.958 52.4707 219.15 51.9587 219.193 51.788C219.193 51.6173 219.214 51.3187 219.257 50.892C219.342 50.4653 219.619 50.1027 220.089 49.804C220.643 49.42 221.219 49.3987 221.817 49.74C222.414 50.0813 222.926 50.6787 223.353 51.532C223.779 52.3427 223.993 53.3027 223.993 54.412C223.993 54.7107 223.779 55.4787 223.353 56.716C222.926 57.9107 222.35 59.34 221.625 61.004C220.942 62.668 220.174 64.3533 219.321 66.06C218.681 67.2973 218.19 68.172 217.849 68.684C217.55 69.1533 217.166 69.388 216.697 69.388ZM225.401 44.876C224.889 44.876 224.27 44.6413 223.545 44.172C222.862 43.7027 222.243 43.1053 221.689 42.38C221.134 41.6547 220.857 40.8867 220.857 40.076C220.857 39.8627 221.049 39.4787 221.433 38.924C221.817 38.3267 222.179 37.7507 222.521 37.196C222.905 36.6413 223.097 36.3213 223.097 36.236C223.438 36.236 223.843 36.3 224.312 36.428C224.782 36.556 225.166 36.7053 225.465 36.876C225.934 37.9427 226.553 38.86 227.321 39.628C228.089 40.3533 228.473 41.1853 228.473 42.124C228.473 43.0627 228.238 43.7667 227.769 44.236C227.299 44.6627 226.51 44.876 225.401 44.876ZM230.603 69.324C230.432 69.324 230.027 69.1747 229.387 68.876C228.747 68.5347 228.342 68.2787 228.171 68.108C227.872 67.7667 227.68 67.404 227.595 67.02C227.51 66.5933 227.467 65.7827 227.467 64.588C227.467 63.2227 227.744 61.6867 228.299 59.98C228.854 58.2307 229.792 55.9053 231.115 53.004L233.739 47.692C233.952 47.3933 234.144 47.1373 234.315 46.924C234.486 46.668 234.678 46.4333 234.891 46.22C234.976 46.22 235.083 46.22 235.211 46.22C235.382 46.22 235.51 46.2413 235.595 46.284C235.979 46.3267 236.576 46.5613 237.387 46.988C238.24 47.4147 238.752 48.0547 238.923 48.908C238.923 49.4627 238.838 50.124 238.667 50.892C238.496 51.6173 237.984 52.5773 237.131 53.772C236.79 54.1987 236.448 54.8173 236.107 55.628C235.808 56.4387 235.531 57.2067 235.275 57.932C235.232 58.0173 235.104 58.2307 234.891 58.572C234.72 58.8707 234.55 59.1907 234.379 59.532C234.208 59.8307 234.123 60.0227 234.123 60.108L233.867 60.684L236.619 57.996C238.539 56.076 240.16 54.7107 241.483 53.9C242.806 53.0893 243.915 52.748 244.811 52.876C245.75 53.004 246.496 53.5373 247.051 54.476C247.35 54.9027 247.563 55.372 247.691 55.884C247.819 56.3533 247.904 56.908 247.947 57.548C247.99 58.188 247.968 58.9987 247.883 59.98V63.628C248.694 63.4147 249.312 63.244 249.739 63.116C250.166 62.9453 250.592 62.796 251.019 62.668C251.36 62.5827 251.702 62.4973 252.043 62.412C252.427 62.3267 252.896 62.2627 253.451 62.22C253.408 62.7747 253.174 63.4573 252.747 64.268C252.32 65.0787 251.787 65.8893 251.147 66.7C250.55 67.5107 249.888 68.1933 249.163 68.748C248.48 69.3027 247.84 69.58 247.243 69.58C246.688 69.58 246.048 69.4093 245.323 69.068C244.598 68.684 243.979 67.9587 243.467 66.892C243.296 66.3373 243.126 65.6973 242.955 64.972C242.784 64.2467 242.699 63.4787 242.699 62.668V59.852C242.699 59.596 242.678 59.4253 242.635 59.34C242.635 59.212 242.614 59.148 242.571 59.148C242.4 59.148 241.846 59.596 240.907 60.492C240.011 61.388 239.094 62.3267 238.155 63.308C236.192 65.356 234.55 66.8707 233.227 67.852C231.947 68.8333 231.072 69.324 230.603 69.324Z" fill="#09090B"/>
</svg>
