<svg width="162" height="100" viewBox="0 0 162 100" fill="none" xmlns="http://www.w3.org/2000/svg">
<path d="M24.336 74.892C23.568 74.9347 22.928 74.572 22.416 73.804C21.904 73.036 21.6693 72.396 21.712 71.884C21.7547 71.2013 21.9467 70.22 22.288 68.94C22.6293 67.66 23.0133 66.3587 23.44 65.036C23.8667 63.7133 24.2507 62.668 24.592 61.9C24.7627 61.2173 24.912 60.62 25.04 60.108C25.2107 59.5533 25.3173 59.1907 25.36 59.02C25.488 58.8493 25.68 58.4013 25.936 57.676C26.2347 56.9507 26.4693 56.2467 26.64 55.564C26.7253 55.2227 26.896 54.5827 27.152 53.644C27.4507 52.6627 27.792 51.532 28.176 50.252C28.6027 48.972 29.008 47.7133 29.392 46.476C29.8187 45.2387 30.1813 44.1507 30.48 43.212C30.7787 42.2733 30.9707 41.6547 31.056 41.356C31.3973 40.844 31.6533 40.3533 31.824 39.884C31.9947 39.4147 32.1013 39.0947 32.144 38.924C32.4 38.7533 32.5493 38.54 32.592 38.284C32.6347 37.9853 32.656 37.7507 32.656 37.58C32.656 37.3667 32.72 37.196 32.848 37.068C33.0187 36.94 33.104 36.7907 33.104 36.62C33.2747 36.492 33.3813 36.4707 33.424 36.556C33.4667 36.6413 33.5947 36.5773 33.808 36.364L34.128 34.188L39.824 34.124C39.7387 34.636 39.6107 35.276 39.44 36.044C39.2693 36.7693 38.864 37.7507 38.224 38.988C38.0107 39.8413 37.7547 40.6093 37.456 41.292C37.2 41.9747 37.0933 42.4227 37.136 42.636C37.0507 42.7213 36.8587 43.148 36.56 43.916C36.304 44.684 35.984 45.6227 35.6 46.732C35.2587 47.8413 34.896 48.9507 34.512 50.06C34.1707 51.1693 33.8507 52.1507 33.552 53.004C33.296 53.8147 33.1253 54.3267 33.04 54.54C32.6987 55.2227 32.3147 56.2253 31.888 57.548C31.4613 58.8707 30.8213 60.6627 29.968 62.924C29.6267 63.6067 29.2 64.6307 28.688 65.996C28.2187 67.3613 27.8347 68.5987 27.536 69.708C27.0667 71.372 26.64 72.5667 26.256 73.292C25.9147 74.0173 25.5947 74.444 25.296 74.572C24.9973 74.7427 24.6773 74.8493 24.336 74.892ZM24.912 37.26C23.1627 37.4307 21.968 37.2173 21.328 36.62C20.7307 36.0227 20.5173 35.3827 20.688 34.7C20.816 34.188 21.1147 33.7613 21.584 33.42C22.096 33.036 23.0133 32.716 24.336 32.46C24.8053 32.3747 25.4027 32.268 26.128 32.14C26.896 32.012 27.6213 31.884 28.304 31.756C29.712 31.5853 30.864 31.436 31.76 31.308C32.6987 31.18 33.6587 31.0733 34.64 30.988C35.6213 30.9027 36.8587 30.8173 38.352 30.732C39.5893 30.6467 40.6347 30.5827 41.488 30.54C42.384 30.4547 42.832 30.412 42.832 30.412C42.96 30.412 43.408 30.4547 44.176 30.54C44.944 30.6253 45.776 30.732 46.672 30.86C47.568 30.988 48.2293 31.1373 48.656 31.308C49.6373 31.5213 50.4267 31.9053 51.024 32.46C51.6213 33.0147 52.0053 33.6547 52.176 34.38C52.304 34.892 52.304 35.2973 52.176 35.596C52.048 35.852 51.8133 36.0653 51.472 36.236C50.4907 36.5347 49.68 36.7907 49.04 37.004C48.4427 37.1747 47.8453 37.1533 47.248 36.94C47.0347 36.7267 46.7787 36.5347 46.48 36.364C46.224 36.1933 45.7547 36.0653 45.072 35.98C44.432 35.852 43.408 35.7453 42 35.66C40.8053 35.788 39.76 35.852 38.864 35.852C37.968 35.852 37.52 35.9587 37.52 36.172L33.744 36.364L30.608 36.684C30.1813 36.7267 29.584 36.7907 28.816 36.876C28.048 36.9187 27.3013 36.9827 26.576 37.068C25.8507 37.1107 25.296 37.1747 24.912 37.26ZM45.9045 70.412C45.5632 70.0707 45.3072 69.5587 45.1365 68.876C45.0085 68.1933 44.9658 67.532 45.0085 66.892C45.0512 66.2093 45.1578 65.6973 45.3285 65.356C45.3285 65.0147 45.3712 64.7587 45.4565 64.588C45.5845 64.3747 45.6272 64.1827 45.5845 64.012C45.5418 63.8413 45.5845 63.5427 45.7125 63.116C45.8405 62.6893 45.9685 62.284 46.0965 61.9C46.3952 61.2173 46.7365 60.3427 47.1205 59.276C47.5045 58.1667 47.8885 57.0573 48.2725 55.948C48.6565 54.796 48.9765 53.8147 49.2325 53.004C49.4885 52.1507 49.6378 51.6387 49.6805 51.468C49.6805 50.956 50.0218 50.6787 50.7045 50.636C51.2165 50.4653 51.8352 50.6787 52.5605 51.276C53.2858 51.8733 53.8618 52.5133 54.2885 53.196C54.6298 53.5373 54.7578 53.9853 54.6725 54.54C54.5872 55.0947 54.3098 55.884 53.8405 56.908C53.6698 57.2493 53.4565 57.8253 53.2005 58.636C52.9872 59.404 52.8378 60.044 52.7525 60.556C52.5818 60.8973 52.3685 61.388 52.1125 62.028C51.8992 62.6253 51.7072 63.2013 51.5365 63.756C51.4512 63.9693 51.3658 64.3747 51.2805 64.972C51.1952 65.5267 51.0885 66.1027 50.9605 66.7C50.8325 67.2973 50.6618 67.7667 50.4485 68.108C50.0645 69.8573 49.3818 70.8813 48.4005 71.18C47.4618 71.4787 46.6298 71.2227 45.9045 70.412ZM52.8165 44.748C52.3472 44.4067 51.9845 44.0013 51.7285 43.532C51.5152 43.02 51.3872 42.572 51.3445 42.188C51.3445 41.804 51.3872 41.5693 51.4725 41.484C51.8992 41.0147 52.2618 40.396 52.5605 39.628C52.9018 38.86 53.2645 38.156 53.6485 37.516C53.7338 37.388 53.8405 37.2173 53.9685 37.004C54.1392 36.748 54.3098 36.5987 54.4805 36.556C54.9925 36.2147 55.6965 36.236 56.5925 36.62C57.5312 37.004 58.2138 37.5373 58.6405 38.22C59.0245 39.0307 59.1312 39.8627 58.9605 40.716C58.8325 41.5693 58.3845 42.4653 57.6165 43.404C56.9765 44.2573 56.1658 44.812 55.1845 45.068C54.2032 45.2813 53.4138 45.1747 52.8165 44.748ZM62.819 71.564C62.3497 71.4787 61.8377 71.2013 61.283 70.732C60.7283 70.22 60.2163 69.6653 59.747 69.068C59.3203 68.428 59.043 67.8947 58.915 67.468C58.915 67.3827 58.851 67.276 58.723 67.148C58.6377 67.02 58.595 66.956 58.595 66.956C58.4243 66.828 58.3177 66.2733 58.275 65.292C58.275 64.268 58.339 63.1373 58.467 61.9C58.595 60.6627 58.7443 59.6813 58.915 58.956C59.1283 58.2733 59.4483 57.356 59.875 56.204C60.3017 55.0093 60.6643 53.9427 60.963 53.004L62.691 49.292L60.131 48.588C59.8323 48.5027 59.5763 48.332 59.363 48.076C59.1923 47.82 59.107 47.6067 59.107 47.436C59.107 47.0947 59.299 46.604 59.683 45.964C60.067 45.324 60.3443 45.004 60.515 45.004C60.7283 45.0467 61.1123 45.068 61.667 45.068C62.2643 45.068 62.8403 45.0467 63.395 45.004C63.9497 44.9613 64.291 44.9187 64.419 44.876C64.5897 44.7907 64.7603 44.684 64.931 44.556C65.1017 44.3853 65.2297 44.1507 65.315 43.852C65.5283 43.3827 65.7203 43.02 65.891 42.764C66.0617 42.508 66.2963 42.124 66.595 41.612C66.8937 41.0573 67.1283 40.588 67.299 40.204C67.5123 39.82 67.8323 39.2867 68.259 38.604C68.4723 38.3053 68.707 37.9427 68.963 37.516C69.219 37.0893 69.539 36.7267 69.923 36.428C70.307 36.0867 70.9257 35.852 71.779 35.724C72.675 35.5533 73.443 35.7453 74.083 36.3C74.4243 36.7267 74.6163 37.132 74.659 37.516C74.7017 37.9 74.531 38.3907 74.147 38.988C73.8057 39.7133 73.4003 40.3747 72.931 40.972C72.5043 41.5267 72.099 42.1667 71.715 42.892C71.0323 43.8307 70.9043 44.364 71.331 44.492C71.7577 44.62 72.9523 44.5347 74.915 44.236C76.1523 44.0227 77.0483 44.1507 77.603 44.62C78.1577 45.0893 78.4777 45.6867 78.563 46.412C78.691 47.436 78.5843 48.0547 78.243 48.268C77.9017 48.4813 76.9203 48.588 75.299 48.588C74.275 48.7587 73.4003 48.8653 72.675 48.908C71.9497 48.908 71.4163 48.908 71.075 48.908C70.5203 48.9507 70.1577 48.972 69.987 48.972C69.8163 48.972 69.5603 49.0147 69.219 49.1C68.8777 49.1853 68.6217 49.3347 68.451 49.548C68.323 49.7187 68.1737 49.9747 68.003 50.316C67.8323 50.4867 67.5763 50.9347 67.235 51.66C66.8937 52.3853 66.467 53.1747 65.955 54.028C65.3577 55.82 64.8457 57.548 64.419 59.212C64.035 60.8333 63.6937 62.4547 63.395 64.076C63.267 64.8867 63.2883 65.484 63.459 65.868C63.6723 66.2093 64.227 66.4227 65.123 66.508C65.5923 66.5507 66.275 66.5507 67.171 66.508C68.067 66.4227 68.8137 66.2947 69.411 66.124C69.8803 65.9107 70.371 65.6973 70.883 65.484C71.395 65.228 71.8643 64.972 72.291 64.716C72.675 64.5027 73.059 64.2893 73.443 64.076C73.827 63.82 74.019 63.692 74.019 63.692C74.2323 63.3507 74.531 63.4147 74.915 63.884C75.3417 64.3107 75.6403 64.78 75.811 65.292C75.811 65.804 75.7043 66.4227 75.491 67.148C75.2777 67.8307 74.4883 68.556 73.123 69.324C71.203 70.5187 69.283 71.244 67.363 71.5C65.443 71.756 63.9283 71.7773 62.819 71.564ZM84.0065 71.436C82.9825 71.436 82.0865 70.9027 81.3185 69.836C80.5932 68.7267 80.1452 67.404 79.9745 65.868C80.0172 65.5267 80.0598 65.036 80.1025 64.396C80.1878 63.756 80.2732 63.0947 80.3585 62.412C80.5292 61.6013 80.7638 60.556 81.0625 59.276C81.3612 57.996 81.6812 56.716 82.0225 55.436C82.3638 54.1133 82.6625 52.9827 82.9185 52.044C83.1745 51.0627 83.3238 50.4867 83.3665 50.316C83.6225 49.7187 84.1985 49.5693 85.0945 49.868C85.9905 50.1667 86.7585 50.8067 87.3985 51.788C87.6545 52.1293 87.8038 52.5347 87.8465 53.004C87.9318 53.4733 87.8678 54.156 87.6545 55.052C87.4838 55.948 87.1425 57.2707 86.6305 59.02C86.1612 60.7267 85.7985 62.1133 85.5425 63.18C85.3292 64.204 85.2438 65.292 85.2865 66.444C85.1158 68.4067 84.9452 69.7507 84.7745 70.476C84.6038 71.1587 84.3478 71.4787 84.0065 71.436ZM89.8945 44.876C89.7238 45.004 89.5532 45.068 89.3825 45.068C89.2545 45.0253 89.0198 44.8973 88.6785 44.684C88.3798 44.6413 87.9958 44.4493 87.5265 44.108C87.0998 43.724 86.7158 43.34 86.3745 42.956C86.0758 42.572 85.9265 42.3373 85.9265 42.252C85.8838 41.8253 85.9052 41.1427 85.9905 40.204C86.1185 39.2653 86.3532 38.3907 86.6945 37.58C87.0785 36.7267 87.5905 36.2787 88.2305 36.236C88.4012 36.236 88.7638 36.3213 89.3185 36.492C89.9158 36.6627 90.5345 36.876 91.1745 37.132C91.5158 37.772 91.8358 38.604 92.1345 39.628C92.4332 40.652 92.4545 41.6547 92.1985 42.636C91.9852 43.5747 91.2172 44.3213 89.8945 44.876ZM91.449 83.34C90.8517 83.5107 90.233 83.3613 89.593 82.892C88.9957 82.4227 88.5263 81.7827 88.185 80.972C87.8863 80.1613 87.8863 79.3293 88.185 78.476C88.2703 78.22 88.3983 77.7933 88.569 77.196C88.7397 76.6413 88.8463 76.1507 88.889 75.724C88.9317 75.4253 89.0597 74.9133 89.273 74.188C89.4863 73.5053 89.721 72.8227 89.977 72.14C90.2757 71.4573 90.5103 70.9667 90.681 70.668C90.937 70.2413 91.1077 69.7507 91.193 69.196C91.321 68.6413 91.385 68.2147 91.385 67.916C91.4703 67.6173 91.577 67.276 91.705 66.892C91.8757 66.508 92.0463 66.2093 92.217 65.996C92.3023 65.6547 92.4303 65.292 92.601 64.908C92.7717 64.4813 92.9637 64.1187 93.177 63.82C93.2623 63.5213 93.3263 63.1587 93.369 62.732C93.4543 62.3053 93.5823 62.0707 93.753 62.028C93.7957 61.8573 93.817 61.6867 93.817 61.516C93.8597 61.3453 93.945 61.1107 94.073 60.812C94.1583 60.3427 94.3503 59.66 94.649 58.764C94.9477 57.868 95.3103 56.8867 95.737 55.82C96.2063 54.5827 96.5263 53.516 96.697 52.62C96.8677 51.6813 96.633 51.084 95.993 50.828C95.6517 50.6573 95.4383 50.2733 95.353 49.676C95.2677 49.036 95.3103 48.396 95.481 47.756C95.6517 47.116 95.9077 46.732 96.249 46.604C96.633 46.4333 97.1023 46.3267 97.657 46.284C98.2117 46.2413 98.7023 46.2413 99.129 46.284C99.5983 46.284 99.8117 46.3267 99.769 46.412C99.769 46.6253 99.8757 46.7533 100.089 46.796C100.174 46.668 100.345 46.86 100.601 47.372C100.9 47.8413 101.177 48.3747 101.433 48.972C101.689 49.5693 101.817 49.9747 101.817 50.188C101.732 50.3587 101.689 50.4653 101.689 50.508C101.689 50.508 101.774 50.508 101.945 50.508C101.945 50.508 102.18 50.4013 102.649 50.188C103.118 49.932 103.609 49.6547 104.121 49.356C104.676 49.0147 105.038 48.7587 105.209 48.588C105.209 48.588 105.316 48.5453 105.529 48.46C105.785 48.332 105.998 48.1827 106.169 48.012C107.022 47.6707 107.94 47.6067 108.921 47.82C109.945 48.0333 110.756 48.4173 111.353 48.972C112.206 50.0387 112.846 51.3613 113.273 52.94C113.742 54.5187 113.678 56.0547 113.081 57.548C112.996 57.7613 112.804 58.124 112.505 58.636C112.249 59.1053 111.993 59.5533 111.737 59.98C111.481 60.364 111.353 60.556 111.353 60.556C110.372 62.092 109.284 63.372 108.089 64.396C106.937 65.42 105.678 66.316 104.313 67.084C103.886 67.3827 103.289 67.66 102.521 67.916C101.796 68.172 101.113 68.364 100.473 68.492C99.8757 68.62 99.513 68.6413 99.385 68.556C98.9157 68.2147 98.489 67.4893 98.105 66.38C97.8917 66.9347 97.6783 67.4893 97.465 68.044C97.2943 68.556 97.1877 68.8973 97.145 69.068C97.1023 69.3667 97.0597 69.6227 97.017 69.836C96.9743 70.0067 96.8677 70.156 96.697 70.284C96.697 70.284 96.6757 70.3693 96.633 70.54C96.5903 70.7107 96.441 70.9667 96.185 71.308C95.7583 72.5453 95.417 73.5053 95.161 74.188C94.905 74.9133 94.6917 75.4893 94.521 75.916C94.393 76.3853 94.265 76.876 94.137 77.388C94.0517 78.54 93.7743 79.756 93.305 81.036C92.8783 82.316 92.2597 83.084 91.449 83.34ZM100.985 62.54C101.156 62.4547 101.454 62.3053 101.881 62.092C102.35 61.8787 102.862 61.6227 103.417 61.324C103.972 60.9827 104.484 60.6627 104.953 60.364C105.465 60.0227 105.828 59.724 106.041 59.468C106.382 59.084 106.574 58.7853 106.617 58.572C106.66 58.316 106.766 57.9107 106.937 57.356C107.065 57.0147 107.214 56.6307 107.385 56.204C107.556 55.7773 107.705 55.372 107.833 54.988C108.004 54.6467 108.068 54.3053 108.025 53.964C108.025 53.58 107.897 53.26 107.641 53.004C107.47 52.9613 107.065 53.0253 106.425 53.196C105.828 53.3667 105.124 53.708 104.313 54.22C103.545 54.732 102.777 55.4787 102.009 56.46C101.113 57.612 100.516 58.6573 100.217 59.596C99.9183 60.492 99.8543 61.2173 100.025 61.772C100.196 62.284 100.516 62.54 100.985 62.54ZM118.197 69.388C118.026 69.388 117.663 69.26 117.109 69.004C116.554 68.748 116.277 68.62 116.277 68.62C116.277 68.4493 116.213 68.236 116.085 67.98C115.999 67.724 115.957 67.5107 115.957 67.34C115.658 67.1693 115.359 66.892 115.061 66.508C114.762 66.124 114.698 65.6973 114.869 65.228C115.125 64.7587 115.466 64.0547 115.893 63.116C116.362 62.1347 116.853 61.0467 117.365 59.852C117.919 58.6147 118.431 57.42 118.901 56.268C119.37 55.116 119.775 54.1347 120.117 53.324C120.458 52.4707 120.65 51.9587 120.693 51.788C120.693 51.6173 120.714 51.3187 120.757 50.892C120.842 50.4653 121.119 50.1027 121.589 49.804C122.143 49.42 122.719 49.3987 123.317 49.74C123.914 50.0813 124.426 50.6787 124.853 51.532C125.279 52.3427 125.493 53.3027 125.493 54.412C125.493 54.7107 125.279 55.4787 124.853 56.716C124.426 57.9107 123.85 59.34 123.125 61.004C122.442 62.668 121.674 64.3533 120.821 66.06C120.181 67.2973 119.69 68.172 119.349 68.684C119.05 69.1533 118.666 69.388 118.197 69.388ZM126.901 44.876C126.389 44.876 125.77 44.6413 125.045 44.172C124.362 43.7027 123.743 43.1053 123.189 42.38C122.634 41.6547 122.357 40.8867 122.357 40.076C122.357 39.8627 122.549 39.4787 122.933 38.924C123.317 38.3267 123.679 37.7507 124.021 37.196C124.405 36.6413 124.597 36.3213 124.597 36.236C124.938 36.236 125.343 36.3 125.812 36.428C126.282 36.556 126.666 36.7053 126.965 36.876C127.434 37.9427 128.053 38.86 128.821 39.628C129.589 40.3533 129.973 41.1853 129.973 42.124C129.973 43.0627 129.738 43.7667 129.269 44.236C128.799 44.6627 128.01 44.876 126.901 44.876ZM132.103 69.324C131.932 69.324 131.527 69.1747 130.887 68.876C130.247 68.5347 129.842 68.2787 129.671 68.108C129.372 67.7667 129.18 67.404 129.095 67.02C129.01 66.5933 128.967 65.7827 128.967 64.588C128.967 63.2227 129.244 61.6867 129.799 59.98C130.354 58.2307 131.292 55.9053 132.615 53.004L135.239 47.692C135.452 47.3933 135.644 47.1373 135.815 46.924C135.986 46.668 136.178 46.4333 136.391 46.22C136.476 46.22 136.583 46.22 136.711 46.22C136.882 46.22 137.01 46.2413 137.095 46.284C137.479 46.3267 138.076 46.5613 138.887 46.988C139.74 47.4147 140.252 48.0547 140.423 48.908C140.423 49.4627 140.338 50.124 140.167 50.892C139.996 51.6173 139.484 52.5773 138.631 53.772C138.29 54.1987 137.948 54.8173 137.607 55.628C137.308 56.4387 137.031 57.2067 136.775 57.932C136.732 58.0173 136.604 58.2307 136.391 58.572C136.22 58.8707 136.05 59.1907 135.879 59.532C135.708 59.8307 135.623 60.0227 135.623 60.108L135.367 60.684L138.119 57.996C140.039 56.076 141.66 54.7107 142.983 53.9C144.306 53.0893 145.415 52.748 146.311 52.876C147.25 53.004 147.996 53.5373 148.551 54.476C148.85 54.9027 149.063 55.372 149.191 55.884C149.319 56.3533 149.404 56.908 149.447 57.548C149.49 58.188 149.468 58.9987 149.383 59.98V63.628C150.194 63.4147 150.812 63.244 151.239 63.116C151.666 62.9453 152.092 62.796 152.519 62.668C152.86 62.5827 153.202 62.4973 153.543 62.412C153.927 62.3267 154.396 62.2627 154.951 62.22C154.908 62.7747 154.674 63.4573 154.247 64.268C153.82 65.0787 153.287 65.8893 152.647 66.7C152.05 67.5107 151.388 68.1933 150.663 68.748C149.98 69.3027 149.34 69.58 148.743 69.58C148.188 69.58 147.548 69.4093 146.823 69.068C146.098 68.684 145.479 67.9587 144.967 66.892C144.796 66.3373 144.626 65.6973 144.455 64.972C144.284 64.2467 144.199 63.4787 144.199 62.668V59.852C144.199 59.596 144.178 59.4253 144.135 59.34C144.135 59.212 144.114 59.148 144.071 59.148C143.9 59.148 143.346 59.596 142.407 60.492C141.511 61.388 140.594 62.3267 139.655 63.308C137.692 65.356 136.05 66.8707 134.727 67.852C133.447 68.8333 132.572 69.324 132.103 69.324Z" fill="#FAFAFA"/>
</svg>
